<mxfile host="app.diagrams.net" modified="2021-03-19T05:24:46.321Z" agent="5.0 (Windows NT 10.0; Win64; x64) AppleWebKit/537.36 (KHTML, like Gecko) Chrome/89.0.4389.90 Safari/537.36" etag="0jLJVIYJOdl55QeXJ657" version="14.4.9" type="github">
  <diagram id="C5RBs43oDa-KdzZeNtuy" name="Page-1">
    <mxGraphModel dx="2557" dy="967" grid="1" gridSize="10" guides="1" tooltips="1" connect="1" arrows="1" fold="1" page="1" pageScale="1" pageWidth="827" pageHeight="1169" math="0" shadow="0">
      <root>
        <mxCell id="WIyWlLk6GJQsqaUBKTNV-0" />
        <mxCell id="WIyWlLk6GJQsqaUBKTNV-1" parent="WIyWlLk6GJQsqaUBKTNV-0" />
        <mxCell id="934r1Nunv1jcgl2rMJqk-0" value="aa" style="rhombus;whiteSpace=wrap;html=1;fontFamily=Times New Roman;spacing=5;align=center;fontSize=24;" vertex="1" parent="WIyWlLk6GJQsqaUBKTNV-1">
          <mxGeometry x="540" y="70" width="100" height="80" as="geometry" />
        </mxCell>
        <mxCell id="934r1Nunv1jcgl2rMJqk-1" value="" style="strokeWidth=2;html=1;shape=mxgraph.flowchart.start_2;whiteSpace=wrap;fontFamily=Times New Roman;spacing=5;align=center;" vertex="1" parent="WIyWlLk6GJQsqaUBKTNV-1">
          <mxGeometry x="365" y="10" width="60" height="60" as="geometry" />
        </mxCell>
        <mxCell id="934r1Nunv1jcgl2rMJqk-2" value="Choose product to scan" style="rounded=1;whiteSpace=wrap;html=1;fontFamily=Times New Roman;spacing=5;align=center;fontSize=24;" vertex="1" parent="WIyWlLk6GJQsqaUBKTNV-1">
          <mxGeometry x="340" y="150" width="120" height="80" as="geometry" />
        </mxCell>
        <mxCell id="934r1Nunv1jcgl2rMJqk-3" value="scan product barcode" style="rounded=1;whiteSpace=wrap;html=1;fontFamily=Times New Roman;spacing=5;align=center;fontSize=24;" vertex="1" parent="WIyWlLk6GJQsqaUBKTNV-1">
          <mxGeometry x="330" y="270" width="140" height="100" as="geometry" />
        </mxCell>
        <mxCell id="934r1Nunv1jcgl2rMJqk-4" value="barcode invalid?" style="rhombus;whiteSpace=wrap;html=1;fontFamily=Times New Roman;spacing=5;align=center;fontSize=24;" vertex="1" parent="WIyWlLk6GJQsqaUBKTNV-1">
          <mxGeometry x="330" y="405" width="140" height="100" as="geometry" />
        </mxCell>
        <mxCell id="934r1Nunv1jcgl2rMJqk-5" value="Response information of product" style="rounded=1;whiteSpace=wrap;html=1;fontFamily=Times New Roman;spacing=5;align=center;fontSize=24;" vertex="1" parent="WIyWlLk6GJQsqaUBKTNV-1">
          <mxGeometry x="100" y="510" width="140" height="100" as="geometry" />
        </mxCell>
        <mxCell id="934r1Nunv1jcgl2rMJqk-6" value="enter product barcode by hand" style="rounded=1;whiteSpace=wrap;html=1;fontFamily=Times New Roman;spacing=5;align=center;fontSize=24;" vertex="1" parent="WIyWlLk6GJQsqaUBKTNV-1">
          <mxGeometry x="560" y="520" width="140" height="100" as="geometry" />
        </mxCell>
        <mxCell id="934r1Nunv1jcgl2rMJqk-7" value="Show on order details?" style="rhombus;whiteSpace=wrap;html=1;fontFamily=Times New Roman;spacing=5;align=center;" vertex="1" parent="WIyWlLk6GJQsqaUBKTNV-1">
          <mxGeometry x="300" y="620" width="110" height="100" as="geometry" />
        </mxCell>
        <mxCell id="934r1Nunv1jcgl2rMJqk-8" value="barcode exist?" style="rhombus;whiteSpace=wrap;html=1;fontFamily=Times New Roman;spacing=5;align=center;" vertex="1" parent="WIyWlLk6GJQsqaUBKTNV-1">
          <mxGeometry x="580" y="680" width="100" height="80" as="geometry" />
        </mxCell>
        <mxCell id="934r1Nunv1jcgl2rMJqk-9" value="Choose item manual" style="rounded=1;whiteSpace=wrap;html=1;fontFamily=Times New Roman;spacing=5;align=center;" vertex="1" parent="WIyWlLk6GJQsqaUBKTNV-1">
          <mxGeometry x="400" y="800" width="120" height="80" as="geometry" />
        </mxCell>
        <mxCell id="934r1Nunv1jcgl2rMJqk-10" value="" style="verticalLabelPosition=bottom;verticalAlign=top;html=1;shape=mxgraph.flowchart.on-page_reference;fontFamily=Times New Roman;spacing=5;align=center;" vertex="1" parent="WIyWlLk6GJQsqaUBKTNV-1">
          <mxGeometry x="690" y="800" width="60" height="60" as="geometry" />
        </mxCell>
        <mxCell id="934r1Nunv1jcgl2rMJqk-11" value="" style="endArrow=classic;html=1;exitX=0.5;exitY=0;exitDx=0;exitDy=0;entryX=1;entryY=0.5;entryDx=0;entryDy=0;fontFamily=Times New Roman;spacing=5;align=center;" edge="1" parent="WIyWlLk6GJQsqaUBKTNV-1" source="934r1Nunv1jcgl2rMJqk-9" target="934r1Nunv1jcgl2rMJqk-7">
          <mxGeometry width="50" height="50" relative="1" as="geometry">
            <mxPoint x="430" y="760" as="sourcePoint" />
            <mxPoint x="450" y="670" as="targetPoint" />
            <Array as="points">
              <mxPoint x="460" y="730" />
              <mxPoint x="460" y="670" />
            </Array>
          </mxGeometry>
        </mxCell>
        <mxCell id="934r1Nunv1jcgl2rMJqk-12" value="Response list order details" style="rounded=1;whiteSpace=wrap;html=1;fontFamily=Times New Roman;spacing=5;align=center;" vertex="1" parent="WIyWlLk6GJQsqaUBKTNV-1">
          <mxGeometry x="130" y="780" width="120" height="80" as="geometry" />
        </mxCell>
        <mxCell id="934r1Nunv1jcgl2rMJqk-13" value="The line show right?" style="rhombus;whiteSpace=wrap;html=1;fontFamily=Times New Roman;spacing=5;align=center;" vertex="1" parent="WIyWlLk6GJQsqaUBKTNV-1">
          <mxGeometry x="140" y="930" width="100" height="100" as="geometry" />
        </mxCell>
        <mxCell id="934r1Nunv1jcgl2rMJqk-14" value="Choose item manual" style="rounded=1;whiteSpace=wrap;html=1;fontFamily=Times New Roman;spacing=5;align=center;" vertex="1" parent="WIyWlLk6GJQsqaUBKTNV-1">
          <mxGeometry x="720" y="940" width="120" height="80" as="geometry" />
        </mxCell>
        <mxCell id="934r1Nunv1jcgl2rMJqk-15" value="" style="endArrow=classic;html=1;exitX=0.5;exitY=0;exitDx=0;exitDy=0;entryX=1;entryY=0.5;entryDx=0;entryDy=0;fontFamily=Times New Roman;spacing=5;align=center;" edge="1" parent="WIyWlLk6GJQsqaUBKTNV-1" source="934r1Nunv1jcgl2rMJqk-14" target="934r1Nunv1jcgl2rMJqk-0">
          <mxGeometry width="50" height="50" relative="1" as="geometry">
            <mxPoint x="760" y="780" as="sourcePoint" />
            <mxPoint x="810" y="730" as="targetPoint" />
            <Array as="points">
              <mxPoint x="780" y="110" />
            </Array>
          </mxGeometry>
        </mxCell>
        <mxCell id="934r1Nunv1jcgl2rMJqk-16" value="" style="endArrow=classic;html=1;exitX=1;exitY=0.5;exitDx=0;exitDy=0;entryX=0;entryY=0.5;entryDx=0;entryDy=0;fontFamily=Times New Roman;spacing=5;align=center;" edge="1" parent="WIyWlLk6GJQsqaUBKTNV-1" source="934r1Nunv1jcgl2rMJqk-13" target="934r1Nunv1jcgl2rMJqk-14">
          <mxGeometry width="50" height="50" relative="1" as="geometry">
            <mxPoint x="300" y="990" as="sourcePoint" />
            <mxPoint x="350" y="940" as="targetPoint" />
          </mxGeometry>
        </mxCell>
        <mxCell id="934r1Nunv1jcgl2rMJqk-17" value="Add more quantity?" style="rhombus;whiteSpace=wrap;html=1;fontFamily=Times New Roman;spacing=5;align=center;" vertex="1" parent="WIyWlLk6GJQsqaUBKTNV-1">
          <mxGeometry x="30" y="1030" width="100" height="100" as="geometry" />
        </mxCell>
        <mxCell id="934r1Nunv1jcgl2rMJqk-18" value="Enter quantity" style="rounded=1;whiteSpace=wrap;html=1;fontFamily=Times New Roman;spacing=5;align=center;" vertex="1" parent="WIyWlLk6GJQsqaUBKTNV-1">
          <mxGeometry x="130" y="1170" width="120" height="80" as="geometry" />
        </mxCell>
        <mxCell id="934r1Nunv1jcgl2rMJqk-19" value="click enter button" style="rounded=1;whiteSpace=wrap;html=1;fontFamily=Times New Roman;spacing=5;align=center;" vertex="1" parent="WIyWlLk6GJQsqaUBKTNV-1">
          <mxGeometry x="130" y="1310" width="120" height="80" as="geometry" />
        </mxCell>
        <mxCell id="934r1Nunv1jcgl2rMJqk-20" value="update order" style="rounded=1;whiteSpace=wrap;html=1;fontFamily=Times New Roman;spacing=5;align=center;" vertex="1" parent="WIyWlLk6GJQsqaUBKTNV-1">
          <mxGeometry x="130" y="1450" width="120" height="80" as="geometry" />
        </mxCell>
        <mxCell id="934r1Nunv1jcgl2rMJqk-21" value="" style="endArrow=classic;html=1;exitX=1;exitY=0.5;exitDx=0;exitDy=0;entryX=0.5;entryY=0;entryDx=0;entryDy=0;fontFamily=Times New Roman;spacing=5;align=center;" edge="1" parent="WIyWlLk6GJQsqaUBKTNV-1" source="934r1Nunv1jcgl2rMJqk-17" target="934r1Nunv1jcgl2rMJqk-18">
          <mxGeometry width="50" height="50" relative="1" as="geometry">
            <mxPoint x="160" y="1105" as="sourcePoint" />
            <mxPoint x="210" y="1055" as="targetPoint" />
            <Array as="points">
              <mxPoint x="190" y="1080" />
            </Array>
          </mxGeometry>
        </mxCell>
        <mxCell id="934r1Nunv1jcgl2rMJqk-22" value="" style="endArrow=classic;html=1;exitX=0.5;exitY=1;exitDx=0;exitDy=0;entryX=0.5;entryY=0;entryDx=0;entryDy=0;fontFamily=Times New Roman;spacing=5;align=center;" edge="1" parent="WIyWlLk6GJQsqaUBKTNV-1" source="934r1Nunv1jcgl2rMJqk-18" target="934r1Nunv1jcgl2rMJqk-19">
          <mxGeometry width="50" height="50" relative="1" as="geometry">
            <mxPoint x="340" y="1350" as="sourcePoint" />
            <mxPoint x="390" y="1300" as="targetPoint" />
          </mxGeometry>
        </mxCell>
        <mxCell id="934r1Nunv1jcgl2rMJqk-23" value="" style="endArrow=classic;html=1;exitX=0.5;exitY=1;exitDx=0;exitDy=0;entryX=0.5;entryY=0;entryDx=0;entryDy=0;fontFamily=Times New Roman;spacing=5;align=center;" edge="1" parent="WIyWlLk6GJQsqaUBKTNV-1" source="934r1Nunv1jcgl2rMJqk-19" target="934r1Nunv1jcgl2rMJqk-20">
          <mxGeometry width="50" height="50" relative="1" as="geometry">
            <mxPoint x="280" y="1400" as="sourcePoint" />
            <mxPoint x="280" y="1460" as="targetPoint" />
          </mxGeometry>
        </mxCell>
        <mxCell id="934r1Nunv1jcgl2rMJqk-24" value="want to pay?" style="rhombus;whiteSpace=wrap;html=1;fontFamily=Times New Roman;spacing=5;align=center;fontSize=24;" vertex="1" parent="WIyWlLk6GJQsqaUBKTNV-1">
          <mxGeometry x="7.5" y="1550" width="130" height="100" as="geometry" />
        </mxCell>
        <mxCell id="934r1Nunv1jcgl2rMJqk-25" value="" style="endArrow=classic;html=1;exitX=0;exitY=0.5;exitDx=0;exitDy=0;entryX=0.5;entryY=0;entryDx=0;entryDy=0;fontFamily=Times New Roman;spacing=5;align=center;" edge="1" parent="WIyWlLk6GJQsqaUBKTNV-1" source="934r1Nunv1jcgl2rMJqk-20" target="934r1Nunv1jcgl2rMJqk-24">
          <mxGeometry width="50" height="50" relative="1" as="geometry">
            <mxPoint x="79.29" y="1460" as="sourcePoint" />
            <mxPoint x="79.29" y="1520" as="targetPoint" />
            <Array as="points">
              <mxPoint x="70" y="1490" />
            </Array>
          </mxGeometry>
        </mxCell>
        <mxCell id="934r1Nunv1jcgl2rMJqk-26" value="Choose payment" style="rounded=1;whiteSpace=wrap;html=1;fontFamily=Times New Roman;spacing=5;align=center;fontSize=24;" vertex="1" parent="WIyWlLk6GJQsqaUBKTNV-1">
          <mxGeometry x="235" y="1704" width="130" height="100" as="geometry" />
        </mxCell>
        <mxCell id="934r1Nunv1jcgl2rMJqk-27" value="payment method?" style="rhombus;whiteSpace=wrap;html=1;fontFamily=Times New Roman;spacing=5;align=center;fontSize=22;" vertex="1" parent="WIyWlLk6GJQsqaUBKTNV-1">
          <mxGeometry x="250" y="1840" width="130" height="100" as="geometry" />
        </mxCell>
        <mxCell id="934r1Nunv1jcgl2rMJqk-28" value="Choose voucher" style="rounded=1;whiteSpace=wrap;html=1;fontFamily=Times New Roman;spacing=5;align=center;fontSize=24;" vertex="1" parent="WIyWlLk6GJQsqaUBKTNV-1">
          <mxGeometry x="430" y="1850" width="120" height="80" as="geometry" />
        </mxCell>
        <mxCell id="934r1Nunv1jcgl2rMJqk-29" value="Credit card" style="rounded=1;whiteSpace=wrap;html=1;fontFamily=Times New Roman;spacing=5;align=center;fontSize=22;" vertex="1" parent="WIyWlLk6GJQsqaUBKTNV-1">
          <mxGeometry x="250" y="2010" width="130" height="100" as="geometry" />
        </mxCell>
        <mxCell id="934r1Nunv1jcgl2rMJqk-30" value="Choose cash" style="rounded=1;whiteSpace=wrap;html=1;fontFamily=Times New Roman;spacing=5;align=center;fontSize=24;" vertex="1" parent="WIyWlLk6GJQsqaUBKTNV-1">
          <mxGeometry x="70" y="1850" width="120" height="80" as="geometry" />
        </mxCell>
        <mxCell id="934r1Nunv1jcgl2rMJqk-31" value="switch&lt;br&gt;&amp;nbsp;credit &lt;br&gt;card?" style="rhombus;whiteSpace=wrap;html=1;fontFamily=Times New Roman;spacing=5;align=center;fontSize=22;" vertex="1" parent="WIyWlLk6GJQsqaUBKTNV-1">
          <mxGeometry x="250" y="2160" width="130" height="100" as="geometry" />
        </mxCell>
        <mxCell id="934r1Nunv1jcgl2rMJqk-32" value="Push information of customer to the bank" style="rounded=1;whiteSpace=wrap;html=1;fontFamily=Times New Roman;spacing=5;align=center;fontSize=22;" vertex="1" parent="WIyWlLk6GJQsqaUBKTNV-1">
          <mxGeometry x="250" y="2310" width="130" height="100" as="geometry" />
        </mxCell>
        <mxCell id="934r1Nunv1jcgl2rMJqk-33" value="check&lt;br&gt;&amp;nbsp;credit&lt;br&gt;&amp;nbsp;term" style="rhombus;whiteSpace=wrap;html=1;fontFamily=Times New Roman;spacing=5;align=center;fontSize=22;" vertex="1" parent="WIyWlLk6GJQsqaUBKTNV-1">
          <mxGeometry x="240" y="2460" width="150" height="120" as="geometry" />
        </mxCell>
        <mxCell id="934r1Nunv1jcgl2rMJqk-34" value="response payment" style="rounded=1;whiteSpace=wrap;html=1;fontFamily=Times New Roman;spacing=5;align=center;fontSize=22;" vertex="1" parent="WIyWlLk6GJQsqaUBKTNV-1">
          <mxGeometry x="250" y="2650" width="130" height="100" as="geometry" />
        </mxCell>
        <mxCell id="934r1Nunv1jcgl2rMJqk-35" value="" style="endArrow=classic;html=1;exitX=1;exitY=0.5;exitDx=0;exitDy=0;entryX=1;entryY=0.5;entryDx=0;entryDy=0;fontFamily=Times New Roman;spacing=5;align=center;" edge="1" parent="WIyWlLk6GJQsqaUBKTNV-1" source="934r1Nunv1jcgl2rMJqk-31" target="934r1Nunv1jcgl2rMJqk-37">
          <mxGeometry width="50" height="50" relative="1" as="geometry">
            <mxPoint x="470" y="2150" as="sourcePoint" />
            <mxPoint x="520" y="2100" as="targetPoint" />
            <Array as="points">
              <mxPoint x="1180" y="2210" />
              <mxPoint x="1180" y="1850" />
            </Array>
          </mxGeometry>
        </mxCell>
        <mxCell id="934r1Nunv1jcgl2rMJqk-36" value="Choose voucher" style="rounded=1;whiteSpace=wrap;html=1;fontFamily=Times New Roman;spacing=5;align=center;" vertex="1" parent="WIyWlLk6GJQsqaUBKTNV-1">
          <mxGeometry x="620" y="1860" width="120" height="80" as="geometry" />
        </mxCell>
        <mxCell id="934r1Nunv1jcgl2rMJqk-37" value="continue&lt;br&gt;&amp;nbsp;with &lt;br&gt;another payment?" style="rhombus;whiteSpace=wrap;html=1;fontFamily=Times New Roman;spacing=5;align=center;fontSize=24;" vertex="1" parent="WIyWlLk6GJQsqaUBKTNV-1">
          <mxGeometry x="955" y="1760" width="170" height="180" as="geometry" />
        </mxCell>
        <mxCell id="934r1Nunv1jcgl2rMJqk-38" value="Cancel payment" style="rounded=1;whiteSpace=wrap;html=1;fontFamily=Times New Roman;spacing=5;align=center;fontSize=24;" vertex="1" parent="WIyWlLk6GJQsqaUBKTNV-1">
          <mxGeometry x="980" y="1550" width="120" height="100" as="geometry" />
        </mxCell>
        <mxCell id="934r1Nunv1jcgl2rMJqk-39" value="" style="endArrow=classic;html=1;exitX=0;exitY=0.5;exitDx=0;exitDy=0;entryX=1;entryY=0.5;entryDx=0;entryDy=0;fontFamily=Times New Roman;spacing=5;align=center;" edge="1" parent="WIyWlLk6GJQsqaUBKTNV-1" source="934r1Nunv1jcgl2rMJqk-38" target="934r1Nunv1jcgl2rMJqk-24">
          <mxGeometry width="50" height="50" relative="1" as="geometry">
            <mxPoint x="550" y="1680" as="sourcePoint" />
            <mxPoint x="600" y="1630" as="targetPoint" />
          </mxGeometry>
        </mxCell>
        <mxCell id="934r1Nunv1jcgl2rMJqk-40" value="" style="endArrow=classic;html=1;exitX=0.5;exitY=0;exitDx=0;exitDy=0;entryX=0.5;entryY=1;entryDx=0;entryDy=0;fontFamily=Times New Roman;spacing=5;align=center;" edge="1" parent="WIyWlLk6GJQsqaUBKTNV-1" source="934r1Nunv1jcgl2rMJqk-37" target="934r1Nunv1jcgl2rMJqk-38">
          <mxGeometry width="50" height="50" relative="1" as="geometry">
            <mxPoint x="740" y="1760" as="sourcePoint" />
            <mxPoint x="790" y="1710" as="targetPoint" />
          </mxGeometry>
        </mxCell>
        <mxCell id="934r1Nunv1jcgl2rMJqk-42" value="" style="endArrow=classic;html=1;exitX=1;exitY=0.5;exitDx=0;exitDy=0;entryX=1;entryY=0.5;entryDx=0;entryDy=0;fontFamily=Times New Roman;spacing=5;align=center;" edge="1" parent="WIyWlLk6GJQsqaUBKTNV-1" source="934r1Nunv1jcgl2rMJqk-33" target="934r1Nunv1jcgl2rMJqk-37">
          <mxGeometry width="50" height="50" relative="1" as="geometry">
            <mxPoint x="450" y="2350" as="sourcePoint" />
            <mxPoint x="500" y="2300" as="targetPoint" />
            <Array as="points">
              <mxPoint x="1180" y="2520" />
              <mxPoint x="1180" y="1850" />
            </Array>
          </mxGeometry>
        </mxCell>
        <mxCell id="934r1Nunv1jcgl2rMJqk-43" value="" style="endArrow=classic;html=1;exitX=0.5;exitY=1;exitDx=0;exitDy=0;entryX=0.5;entryY=0;entryDx=0;entryDy=0;fontFamily=Times New Roman;spacing=5;align=center;" edge="1" parent="WIyWlLk6GJQsqaUBKTNV-1" source="934r1Nunv1jcgl2rMJqk-31" target="934r1Nunv1jcgl2rMJqk-32">
          <mxGeometry width="50" height="50" relative="1" as="geometry">
            <mxPoint x="380" y="2350" as="sourcePoint" />
            <mxPoint x="430" y="2300" as="targetPoint" />
          </mxGeometry>
        </mxCell>
        <mxCell id="934r1Nunv1jcgl2rMJqk-44" value="" style="endArrow=classic;html=1;exitX=0.5;exitY=1;exitDx=0;exitDy=0;entryX=0.5;entryY=0;entryDx=0;entryDy=0;fontFamily=Times New Roman;spacing=5;align=center;" edge="1" parent="WIyWlLk6GJQsqaUBKTNV-1" source="934r1Nunv1jcgl2rMJqk-32" target="934r1Nunv1jcgl2rMJqk-33">
          <mxGeometry width="50" height="50" relative="1" as="geometry">
            <mxPoint x="380" y="2350" as="sourcePoint" />
            <mxPoint x="430" y="2300" as="targetPoint" />
          </mxGeometry>
        </mxCell>
        <mxCell id="934r1Nunv1jcgl2rMJqk-45" value="" style="endArrow=classic;html=1;exitX=0.5;exitY=1;exitDx=0;exitDy=0;entryX=0.5;entryY=0;entryDx=0;entryDy=0;fontFamily=Times New Roman;spacing=5;align=center;" edge="1" parent="WIyWlLk6GJQsqaUBKTNV-1" source="934r1Nunv1jcgl2rMJqk-29" target="934r1Nunv1jcgl2rMJqk-31">
          <mxGeometry width="50" height="50" relative="1" as="geometry">
            <mxPoint x="370" y="2140" as="sourcePoint" />
            <mxPoint x="420" y="2090" as="targetPoint" />
          </mxGeometry>
        </mxCell>
        <mxCell id="934r1Nunv1jcgl2rMJqk-46" value="" style="endArrow=classic;html=1;exitX=0.5;exitY=1;exitDx=0;exitDy=0;entryX=0.5;entryY=0;entryDx=0;entryDy=0;fontFamily=Times New Roman;spacing=5;align=center;" edge="1" parent="WIyWlLk6GJQsqaUBKTNV-1" source="934r1Nunv1jcgl2rMJqk-27" target="934r1Nunv1jcgl2rMJqk-29">
          <mxGeometry width="50" height="50" relative="1" as="geometry">
            <mxPoint x="380" y="2060" as="sourcePoint" />
            <mxPoint x="430" y="2010" as="targetPoint" />
          </mxGeometry>
        </mxCell>
        <mxCell id="934r1Nunv1jcgl2rMJqk-47" value="" style="endArrow=classic;html=1;exitX=1;exitY=0.5;exitDx=0;exitDy=0;entryX=0;entryY=0.5;entryDx=0;entryDy=0;fontFamily=Times New Roman;spacing=5;align=center;" edge="1" parent="WIyWlLk6GJQsqaUBKTNV-1" source="934r1Nunv1jcgl2rMJqk-27" target="934r1Nunv1jcgl2rMJqk-28">
          <mxGeometry width="50" height="50" relative="1" as="geometry">
            <mxPoint x="380" y="2060" as="sourcePoint" />
            <mxPoint x="430" y="2010" as="targetPoint" />
          </mxGeometry>
        </mxCell>
        <mxCell id="934r1Nunv1jcgl2rMJqk-48" value="" style="endArrow=classic;html=1;exitX=0;exitY=0.5;exitDx=0;exitDy=0;entryX=1;entryY=0.5;entryDx=0;entryDy=0;fontFamily=Times New Roman;spacing=5;align=center;" edge="1" parent="WIyWlLk6GJQsqaUBKTNV-1" source="934r1Nunv1jcgl2rMJqk-27" target="934r1Nunv1jcgl2rMJqk-30">
          <mxGeometry width="50" height="50" relative="1" as="geometry">
            <mxPoint x="190" y="1980" as="sourcePoint" />
            <mxPoint x="240" y="1930" as="targetPoint" />
          </mxGeometry>
        </mxCell>
        <mxCell id="934r1Nunv1jcgl2rMJqk-49" value="" style="endArrow=classic;html=1;exitX=0.5;exitY=1;exitDx=0;exitDy=0;entryX=0.5;entryY=0;entryDx=0;entryDy=0;fontFamily=Times New Roman;spacing=5;align=center;" edge="1" parent="WIyWlLk6GJQsqaUBKTNV-1" source="934r1Nunv1jcgl2rMJqk-3" target="934r1Nunv1jcgl2rMJqk-4">
          <mxGeometry width="50" height="50" relative="1" as="geometry">
            <mxPoint x="490" y="400" as="sourcePoint" />
            <mxPoint x="540" y="350" as="targetPoint" />
          </mxGeometry>
        </mxCell>
        <mxCell id="934r1Nunv1jcgl2rMJqk-50" value="" style="endArrow=classic;html=1;exitX=1;exitY=0.5;exitDx=0;exitDy=0;entryX=0.5;entryY=0;entryDx=0;entryDy=0;fontFamily=Times New Roman;spacing=5;align=center;" edge="1" parent="WIyWlLk6GJQsqaUBKTNV-1" source="934r1Nunv1jcgl2rMJqk-4" target="934r1Nunv1jcgl2rMJqk-6">
          <mxGeometry width="50" height="50" relative="1" as="geometry">
            <mxPoint x="470" y="470" as="sourcePoint" />
            <mxPoint x="520" y="420" as="targetPoint" />
            <Array as="points">
              <mxPoint x="630" y="455" />
            </Array>
          </mxGeometry>
        </mxCell>
        <mxCell id="934r1Nunv1jcgl2rMJqk-51" value="" style="endArrow=classic;html=1;exitX=0;exitY=0.5;exitDx=0;exitDy=0;entryX=0.5;entryY=0;entryDx=0;entryDy=0;fontFamily=Times New Roman;spacing=5;align=center;" edge="1" parent="WIyWlLk6GJQsqaUBKTNV-1" source="934r1Nunv1jcgl2rMJqk-4" target="934r1Nunv1jcgl2rMJqk-5">
          <mxGeometry width="50" height="50" relative="1" as="geometry">
            <mxPoint x="380" y="520" as="sourcePoint" />
            <mxPoint x="430" y="470" as="targetPoint" />
            <Array as="points">
              <mxPoint x="170" y="455" />
            </Array>
          </mxGeometry>
        </mxCell>
        <mxCell id="934r1Nunv1jcgl2rMJqk-52" value="" style="strokeWidth=2;html=1;shape=mxgraph.flowchart.annotation_1;align=center;pointerEvents=1;rotation=-90;fontFamily=Times New Roman;spacing=5;" vertex="1" parent="WIyWlLk6GJQsqaUBKTNV-1">
          <mxGeometry x="117.5" y="392.5" width="20" height="65" as="geometry" />
        </mxCell>
        <mxCell id="934r1Nunv1jcgl2rMJqk-53" value="Yes" style="text;html=1;strokeColor=none;fillColor=none;align=center;verticalAlign=middle;whiteSpace=wrap;rounded=0;fontFamily=Times New Roman;spacing=5;" vertex="1" parent="WIyWlLk6GJQsqaUBKTNV-1">
          <mxGeometry x="110" y="410" width="40" height="20" as="geometry" />
        </mxCell>
        <mxCell id="934r1Nunv1jcgl2rMJqk-56" value="" style="strokeWidth=2;html=1;shape=mxgraph.flowchart.annotation_1;align=center;pointerEvents=1;rotation=0;fontFamily=Times New Roman;spacing=5;" vertex="1" parent="WIyWlLk6GJQsqaUBKTNV-1">
          <mxGeometry x="660" y="405" width="20" height="65" as="geometry" />
        </mxCell>
        <mxCell id="934r1Nunv1jcgl2rMJqk-57" value="No" style="text;html=1;strokeColor=none;fillColor=none;align=center;verticalAlign=middle;whiteSpace=wrap;rounded=0;fontFamily=Times New Roman;spacing=5;" vertex="1" parent="WIyWlLk6GJQsqaUBKTNV-1">
          <mxGeometry x="660" y="427.5" width="40" height="20" as="geometry" />
        </mxCell>
        <mxCell id="934r1Nunv1jcgl2rMJqk-58" value="" style="endArrow=classic;html=1;entryX=0.5;entryY=0;entryDx=0;entryDy=0;exitX=0.5;exitY=1;exitDx=0;exitDy=0;fontFamily=Times New Roman;spacing=5;align=center;" edge="1" parent="WIyWlLk6GJQsqaUBKTNV-1" source="934r1Nunv1jcgl2rMJqk-6" target="934r1Nunv1jcgl2rMJqk-8">
          <mxGeometry width="50" height="50" relative="1" as="geometry">
            <mxPoint x="560" y="630" as="sourcePoint" />
            <mxPoint x="480" y="604" as="targetPoint" />
          </mxGeometry>
        </mxCell>
        <mxCell id="934r1Nunv1jcgl2rMJqk-59" value="" style="endArrow=classic;html=1;exitX=0.5;exitY=1;exitDx=0;exitDy=0;entryX=0.5;entryY=0;entryDx=0;entryDy=0;entryPerimeter=0;fontFamily=Times New Roman;spacing=5;align=center;" edge="1" parent="WIyWlLk6GJQsqaUBKTNV-1" source="934r1Nunv1jcgl2rMJqk-8" target="934r1Nunv1jcgl2rMJqk-10">
          <mxGeometry width="50" height="50" relative="1" as="geometry">
            <mxPoint x="570" y="790" as="sourcePoint" />
            <mxPoint x="660" y="760" as="targetPoint" />
            <Array as="points">
              <mxPoint x="720" y="760" />
            </Array>
          </mxGeometry>
        </mxCell>
        <mxCell id="934r1Nunv1jcgl2rMJqk-60" value="" style="endArrow=classic;html=1;exitX=0.5;exitY=1;exitDx=0;exitDy=0;entryX=0.75;entryY=0;entryDx=0;entryDy=0;fontFamily=Times New Roman;spacing=5;align=center;" edge="1" parent="WIyWlLk6GJQsqaUBKTNV-1" source="934r1Nunv1jcgl2rMJqk-8" target="934r1Nunv1jcgl2rMJqk-9">
          <mxGeometry width="50" height="50" relative="1" as="geometry">
            <mxPoint x="550" y="830" as="sourcePoint" />
            <mxPoint x="600" y="780" as="targetPoint" />
            <Array as="points">
              <mxPoint x="490" y="760" />
            </Array>
          </mxGeometry>
        </mxCell>
        <mxCell id="934r1Nunv1jcgl2rMJqk-61" value="" style="endArrow=classic;html=1;exitX=0.5;exitY=1;exitDx=0;exitDy=0;entryX=0.5;entryY=0;entryDx=0;entryDy=0;fontFamily=Times New Roman;spacing=5;align=center;" edge="1" parent="WIyWlLk6GJQsqaUBKTNV-1" source="934r1Nunv1jcgl2rMJqk-2" target="934r1Nunv1jcgl2rMJqk-3">
          <mxGeometry width="50" height="50" relative="1" as="geometry">
            <mxPoint x="380" y="360" as="sourcePoint" />
            <mxPoint x="430" y="310" as="targetPoint" />
          </mxGeometry>
        </mxCell>
        <mxCell id="934r1Nunv1jcgl2rMJqk-62" value="" style="endArrow=classic;html=1;exitX=0.5;exitY=1;exitDx=0;exitDy=0;entryX=0.5;entryY=0;entryDx=0;entryDy=0;fontFamily=Times New Roman;spacing=5;align=center;" edge="1" parent="WIyWlLk6GJQsqaUBKTNV-1" source="934r1Nunv1jcgl2rMJqk-12" target="934r1Nunv1jcgl2rMJqk-13">
          <mxGeometry width="50" height="50" relative="1" as="geometry">
            <mxPoint x="275" y="865" as="sourcePoint" />
            <mxPoint x="325" y="815" as="targetPoint" />
          </mxGeometry>
        </mxCell>
        <mxCell id="934r1Nunv1jcgl2rMJqk-63" value="" style="endArrow=classic;html=1;exitX=1;exitY=0.5;exitDx=0;exitDy=0;entryX=0;entryY=0.5;entryDx=0;entryDy=0;fontFamily=Times New Roman;spacing=5;align=center;" edge="1" parent="WIyWlLk6GJQsqaUBKTNV-1" source="934r1Nunv1jcgl2rMJqk-5" target="934r1Nunv1jcgl2rMJqk-7">
          <mxGeometry width="50" height="50" relative="1" as="geometry">
            <mxPoint x="137.5" y="720" as="sourcePoint" />
            <mxPoint x="187.5" y="670" as="targetPoint" />
            <Array as="points">
              <mxPoint x="270" y="560" />
              <mxPoint x="270" y="670" />
            </Array>
          </mxGeometry>
        </mxCell>
        <mxCell id="934r1Nunv1jcgl2rMJqk-64" value="" style="endArrow=classic;html=1;exitX=0.5;exitY=1;exitDx=0;exitDy=0;entryX=0.5;entryY=0;entryDx=0;entryDy=0;fontFamily=Times New Roman;spacing=5;align=center;" edge="1" parent="WIyWlLk6GJQsqaUBKTNV-1" source="934r1Nunv1jcgl2rMJqk-7" target="934r1Nunv1jcgl2rMJqk-12">
          <mxGeometry width="50" height="50" relative="1" as="geometry">
            <mxPoint x="380" y="860" as="sourcePoint" />
            <mxPoint x="430" y="810" as="targetPoint" />
            <Array as="points">
              <mxPoint x="355" y="750" />
              <mxPoint x="190" y="750" />
            </Array>
          </mxGeometry>
        </mxCell>
        <mxCell id="934r1Nunv1jcgl2rMJqk-65" value="" style="endArrow=classic;html=1;exitX=0;exitY=0.5;exitDx=0;exitDy=0;entryX=0.5;entryY=0;entryDx=0;entryDy=0;fontFamily=Times New Roman;spacing=5;align=center;" edge="1" parent="WIyWlLk6GJQsqaUBKTNV-1" source="934r1Nunv1jcgl2rMJqk-13" target="934r1Nunv1jcgl2rMJqk-17">
          <mxGeometry width="50" height="50" relative="1" as="geometry">
            <mxPoint x="380" y="1030" as="sourcePoint" />
            <mxPoint x="430" y="980" as="targetPoint" />
            <Array as="points">
              <mxPoint x="80" y="980" />
            </Array>
          </mxGeometry>
        </mxCell>
        <mxCell id="934r1Nunv1jcgl2rMJqk-66" value="&lt;font style=&quot;font-size: 20px&quot;&gt;money &amp;lt; total bill&lt;/font&gt;" style="rhombus;whiteSpace=wrap;html=1;fontFamily=Times New Roman;spacing=5;align=center;fontSize=24;" vertex="1" parent="WIyWlLk6GJQsqaUBKTNV-1">
          <mxGeometry x="55" y="2010" width="150" height="120" as="geometry" />
        </mxCell>
        <mxCell id="934r1Nunv1jcgl2rMJqk-67" value="Get more money" style="rounded=1;whiteSpace=wrap;html=1;fontFamily=Times New Roman;spacing=5;align=center;fontSize=24;" vertex="1" parent="WIyWlLk6GJQsqaUBKTNV-1">
          <mxGeometry x="70" y="2180" width="120" height="80" as="geometry" />
        </mxCell>
        <mxCell id="934r1Nunv1jcgl2rMJqk-68" value="excess cash?" style="rhombus;whiteSpace=wrap;html=1;fontFamily=Times New Roman;spacing=5;align=center;fontSize=24;" vertex="1" parent="WIyWlLk6GJQsqaUBKTNV-1">
          <mxGeometry x="67.5" y="2310" width="130" height="120" as="geometry" />
        </mxCell>
        <mxCell id="934r1Nunv1jcgl2rMJqk-69" value="Refund money to customer" style="rounded=1;whiteSpace=wrap;html=1;fontFamily=Times New Roman;spacing=5;align=center;fontSize=24;" vertex="1" parent="WIyWlLk6GJQsqaUBKTNV-1">
          <mxGeometry x="65" y="2480" width="130" height="120" as="geometry" />
        </mxCell>
        <mxCell id="934r1Nunv1jcgl2rMJqk-70" value="payment complete" style="rhombus;whiteSpace=wrap;html=1;fontFamily=Times New Roman;spacing=5;align=center;fontSize=24;" vertex="1" parent="WIyWlLk6GJQsqaUBKTNV-1">
          <mxGeometry x="65" y="2640" width="130" height="120" as="geometry" />
        </mxCell>
        <mxCell id="934r1Nunv1jcgl2rMJqk-71" value="&lt;font style=&quot;font-size: 24px&quot;&gt;Clear order&lt;/font&gt;" style="rounded=1;whiteSpace=wrap;html=1;fontFamily=Times New Roman;spacing=5;align=center;" vertex="1" parent="WIyWlLk6GJQsqaUBKTNV-1">
          <mxGeometry x="67.5" y="2843" width="120" height="80" as="geometry" />
        </mxCell>
        <mxCell id="934r1Nunv1jcgl2rMJqk-72" value="continue purchase" style="rhombus;whiteSpace=wrap;html=1;fontFamily=Times New Roman;spacing=5;align=center;fontSize=24;" vertex="1" parent="WIyWlLk6GJQsqaUBKTNV-1">
          <mxGeometry x="-300" y="1704" width="140" height="120" as="geometry" />
        </mxCell>
        <mxCell id="934r1Nunv1jcgl2rMJqk-73" value="Delete order" style="rounded=1;whiteSpace=wrap;html=1;fontFamily=Times New Roman;spacing=5;align=center;fontSize=24;" vertex="1" parent="WIyWlLk6GJQsqaUBKTNV-1">
          <mxGeometry x="-295" y="1890" width="130" height="100" as="geometry" />
        </mxCell>
        <mxCell id="934r1Nunv1jcgl2rMJqk-74" value="" style="endArrow=classic;html=1;fontFamily=Times New Roman;fontSize=24;align=center;exitX=0.5;exitY=1;exitDx=0;exitDy=0;entryX=0.5;entryY=0;entryDx=0;entryDy=0;" edge="1" parent="WIyWlLk6GJQsqaUBKTNV-1" source="934r1Nunv1jcgl2rMJqk-72" target="934r1Nunv1jcgl2rMJqk-73">
          <mxGeometry width="50" height="50" relative="1" as="geometry">
            <mxPoint y="1819" as="sourcePoint" />
            <mxPoint x="50" y="1769" as="targetPoint" />
          </mxGeometry>
        </mxCell>
        <mxCell id="934r1Nunv1jcgl2rMJqk-75" value="" style="endArrow=classic;html=1;fontFamily=Times New Roman;fontSize=24;align=center;exitX=0.5;exitY=1;exitDx=0;exitDy=0;entryX=0.5;entryY=0;entryDx=0;entryDy=0;" edge="1" parent="WIyWlLk6GJQsqaUBKTNV-1" source="934r1Nunv1jcgl2rMJqk-24" target="934r1Nunv1jcgl2rMJqk-26">
          <mxGeometry width="50" height="50" relative="1" as="geometry">
            <mxPoint x="130" y="1740" as="sourcePoint" />
            <mxPoint x="180" y="1690" as="targetPoint" />
            <Array as="points">
              <mxPoint x="300" y="1650" />
            </Array>
          </mxGeometry>
        </mxCell>
        <mxCell id="934r1Nunv1jcgl2rMJqk-76" value="" style="endArrow=classic;html=1;fontFamily=Times New Roman;fontSize=24;align=center;exitX=0.5;exitY=1;exitDx=0;exitDy=0;entryX=0.5;entryY=0;entryDx=0;entryDy=0;" edge="1" parent="WIyWlLk6GJQsqaUBKTNV-1" source="934r1Nunv1jcgl2rMJqk-24" target="934r1Nunv1jcgl2rMJqk-72">
          <mxGeometry width="50" height="50" relative="1" as="geometry">
            <mxPoint x="60" y="1704" as="sourcePoint" />
            <mxPoint x="105" y="1704" as="targetPoint" />
            <Array as="points">
              <mxPoint x="-230" y="1650" />
            </Array>
          </mxGeometry>
        </mxCell>
        <mxCell id="934r1Nunv1jcgl2rMJqk-78" value="" style="endArrow=classic;html=1;fontFamily=Times New Roman;fontSize=24;align=center;exitX=0.5;exitY=1;exitDx=0;exitDy=0;entryX=0.5;entryY=0;entryDx=0;entryDy=0;" edge="1" parent="WIyWlLk6GJQsqaUBKTNV-1" source="934r1Nunv1jcgl2rMJqk-26" target="934r1Nunv1jcgl2rMJqk-27">
          <mxGeometry width="50" height="50" relative="1" as="geometry">
            <mxPoint x="190" y="1830" as="sourcePoint" />
            <mxPoint x="240" y="1780" as="targetPoint" />
          </mxGeometry>
        </mxCell>
        <mxCell id="934r1Nunv1jcgl2rMJqk-79" value="" style="endArrow=classic;html=1;fontFamily=Times New Roman;fontSize=24;align=center;exitX=0.5;exitY=1;exitDx=0;exitDy=0;" edge="1" parent="WIyWlLk6GJQsqaUBKTNV-1" source="934r1Nunv1jcgl2rMJqk-68" target="934r1Nunv1jcgl2rMJqk-69">
          <mxGeometry width="50" height="50" relative="1" as="geometry">
            <mxPoint x="190" y="2460" as="sourcePoint" />
            <mxPoint x="240" y="2410" as="targetPoint" />
          </mxGeometry>
        </mxCell>
        <mxCell id="934r1Nunv1jcgl2rMJqk-80" value="" style="endArrow=classic;html=1;fontFamily=Times New Roman;fontSize=24;align=center;exitX=0.5;exitY=1;exitDx=0;exitDy=0;entryX=0.5;entryY=0;entryDx=0;entryDy=0;" edge="1" parent="WIyWlLk6GJQsqaUBKTNV-1" source="934r1Nunv1jcgl2rMJqk-69" target="934r1Nunv1jcgl2rMJqk-70">
          <mxGeometry width="50" height="50" relative="1" as="geometry">
            <mxPoint x="170" y="2610" as="sourcePoint" />
            <mxPoint x="220" y="2560" as="targetPoint" />
          </mxGeometry>
        </mxCell>
        <mxCell id="934r1Nunv1jcgl2rMJqk-81" value="" style="endArrow=classic;html=1;fontFamily=Times New Roman;fontSize=24;align=center;exitX=0.5;exitY=1;exitDx=0;exitDy=0;entryX=0.5;entryY=0;entryDx=0;entryDy=0;" edge="1" parent="WIyWlLk6GJQsqaUBKTNV-1" source="934r1Nunv1jcgl2rMJqk-67" target="934r1Nunv1jcgl2rMJqk-68">
          <mxGeometry width="50" height="50" relative="1" as="geometry">
            <mxPoint x="170" y="2290" as="sourcePoint" />
            <mxPoint x="220" y="2240" as="targetPoint" />
          </mxGeometry>
        </mxCell>
        <mxCell id="934r1Nunv1jcgl2rMJqk-82" value="" style="endArrow=classic;html=1;fontFamily=Times New Roman;fontSize=24;align=center;exitX=0.5;exitY=1;exitDx=0;exitDy=0;entryX=0.5;entryY=0;entryDx=0;entryDy=0;" edge="1" parent="WIyWlLk6GJQsqaUBKTNV-1" source="934r1Nunv1jcgl2rMJqk-30" target="934r1Nunv1jcgl2rMJqk-66">
          <mxGeometry width="50" height="50" relative="1" as="geometry">
            <mxPoint x="190" y="2130" as="sourcePoint" />
            <mxPoint x="240" y="2080" as="targetPoint" />
          </mxGeometry>
        </mxCell>
        <mxCell id="934r1Nunv1jcgl2rMJqk-83" value="" style="endArrow=classic;html=1;fontFamily=Times New Roman;fontSize=24;align=center;exitX=0.5;exitY=1;exitDx=0;exitDy=0;entryX=0.5;entryY=0;entryDx=0;entryDy=0;" edge="1" parent="WIyWlLk6GJQsqaUBKTNV-1" source="934r1Nunv1jcgl2rMJqk-66" target="934r1Nunv1jcgl2rMJqk-67">
          <mxGeometry width="50" height="50" relative="1" as="geometry">
            <mxPoint x="190" y="2300" as="sourcePoint" />
            <mxPoint x="240" y="2250" as="targetPoint" />
          </mxGeometry>
        </mxCell>
        <mxCell id="934r1Nunv1jcgl2rMJqk-84" value="" style="endArrow=classic;html=1;fontFamily=Times New Roman;fontSize=24;align=center;exitX=0.5;exitY=1;exitDx=0;exitDy=0;entryX=0.5;entryY=0;entryDx=0;entryDy=0;" edge="1" parent="WIyWlLk6GJQsqaUBKTNV-1" source="934r1Nunv1jcgl2rMJqk-70" target="934r1Nunv1jcgl2rMJqk-71">
          <mxGeometry width="50" height="50" relative="1" as="geometry">
            <mxPoint x="190" y="2630" as="sourcePoint" />
            <mxPoint x="240" y="2580" as="targetPoint" />
          </mxGeometry>
        </mxCell>
        <mxCell id="934r1Nunv1jcgl2rMJqk-85" value="Cancel payment" style="rounded=1;whiteSpace=wrap;html=1;fontFamily=Times New Roman;spacing=5;align=center;fontSize=24;" vertex="1" parent="WIyWlLk6GJQsqaUBKTNV-1">
          <mxGeometry x="-260" y="1565" width="140" height="70" as="geometry" />
        </mxCell>
        <mxCell id="934r1Nunv1jcgl2rMJqk-86" value="&lt;font style=&quot;font-size: 22px&quot;&gt;continue &lt;br&gt;with another payment&lt;/font&gt;" style="rhombus;whiteSpace=wrap;html=1;fontFamily=Times New Roman;spacing=5;align=center;fontSize=24;" vertex="1" parent="WIyWlLk6GJQsqaUBKTNV-1">
          <mxGeometry x="-132.5" y="1710" width="140" height="150" as="geometry" />
        </mxCell>
        <mxCell id="934r1Nunv1jcgl2rMJqk-87" value="" style="endArrow=classic;html=1;fontFamily=Times New Roman;fontSize=24;align=center;exitX=0;exitY=0.5;exitDx=0;exitDy=0;entryX=0.5;entryY=1;entryDx=0;entryDy=0;" edge="1" parent="WIyWlLk6GJQsqaUBKTNV-1" source="934r1Nunv1jcgl2rMJqk-66" target="934r1Nunv1jcgl2rMJqk-86">
          <mxGeometry width="50" height="50" relative="1" as="geometry">
            <mxPoint y="1910" as="sourcePoint" />
            <mxPoint x="50" y="1860" as="targetPoint" />
            <Array as="points">
              <mxPoint x="-62" y="2070" />
            </Array>
          </mxGeometry>
        </mxCell>
        <mxCell id="934r1Nunv1jcgl2rMJqk-88" value="" style="endArrow=classic;html=1;fontFamily=Times New Roman;fontSize=24;align=center;exitX=1;exitY=0.5;exitDx=0;exitDy=0;entryX=0;entryY=0.5;entryDx=0;entryDy=0;" edge="1" parent="WIyWlLk6GJQsqaUBKTNV-1" source="934r1Nunv1jcgl2rMJqk-85" target="934r1Nunv1jcgl2rMJqk-24">
          <mxGeometry width="50" height="50" relative="1" as="geometry">
            <mxPoint x="190" y="1770" as="sourcePoint" />
            <mxPoint x="240" y="1720" as="targetPoint" />
            <Array as="points" />
          </mxGeometry>
        </mxCell>
        <mxCell id="934r1Nunv1jcgl2rMJqk-89" value="" style="endArrow=classic;html=1;fontFamily=Times New Roman;fontSize=24;align=center;exitX=0.5;exitY=0;exitDx=0;exitDy=0;entryX=0.5;entryY=1;entryDx=0;entryDy=0;" edge="1" parent="WIyWlLk6GJQsqaUBKTNV-1" source="934r1Nunv1jcgl2rMJqk-86" target="934r1Nunv1jcgl2rMJqk-85">
          <mxGeometry width="50" height="50" relative="1" as="geometry">
            <mxPoint x="-150" y="1720" as="sourcePoint" />
            <mxPoint x="-100" y="1670" as="targetPoint" />
            <Array as="points">
              <mxPoint x="-190" y="1710" />
            </Array>
          </mxGeometry>
        </mxCell>
        <mxCell id="934r1Nunv1jcgl2rMJqk-90" value="" style="endArrow=classic;html=1;fontFamily=Times New Roman;fontSize=22;align=center;exitX=0.5;exitY=1;exitDx=0;exitDy=0;entryX=0.5;entryY=0;entryDx=0;entryDy=0;" edge="1" parent="WIyWlLk6GJQsqaUBKTNV-1" source="934r1Nunv1jcgl2rMJqk-33" target="934r1Nunv1jcgl2rMJqk-34">
          <mxGeometry width="50" height="50" relative="1" as="geometry">
            <mxPoint x="190" y="2580" as="sourcePoint" />
            <mxPoint x="240" y="2530" as="targetPoint" />
          </mxGeometry>
        </mxCell>
        <mxCell id="934r1Nunv1jcgl2rMJqk-91" value="" style="endArrow=classic;html=1;fontFamily=Times New Roman;fontSize=24;align=center;exitX=0;exitY=0.5;exitDx=0;exitDy=0;entryX=0;entryY=0.5;entryDx=0;entryDy=0;" edge="1" parent="WIyWlLk6GJQsqaUBKTNV-1" source="934r1Nunv1jcgl2rMJqk-72" target="934r1Nunv1jcgl2rMJqk-0">
          <mxGeometry width="50" height="50" relative="1" as="geometry">
            <mxPoint x="-438" y="1685" as="sourcePoint" />
            <mxPoint x="-388" y="1635" as="targetPoint" />
            <Array as="points">
              <mxPoint x="-380" y="1764" />
              <mxPoint x="-370" y="110" />
            </Array>
          </mxGeometry>
        </mxCell>
        <mxCell id="934r1Nunv1jcgl2rMJqk-92" value="" style="endArrow=classic;html=1;fontFamily=Times New Roman;fontSize=24;align=center;exitX=0;exitY=0.5;exitDx=0;exitDy=0;entryX=0.5;entryY=0;entryDx=0;entryDy=0;" edge="1" parent="WIyWlLk6GJQsqaUBKTNV-1" source="934r1Nunv1jcgl2rMJqk-17" target="934r1Nunv1jcgl2rMJqk-24">
          <mxGeometry width="50" height="50" relative="1" as="geometry">
            <mxPoint x="-70" y="1230" as="sourcePoint" />
            <mxPoint x="-20" y="1180" as="targetPoint" />
            <Array as="points">
              <mxPoint x="-70" y="1080" />
              <mxPoint x="-70" y="1550" />
            </Array>
          </mxGeometry>
        </mxCell>
        <mxCell id="934r1Nunv1jcgl2rMJqk-93" value="" style="endArrow=classic;html=1;fontFamily=Times New Roman;fontSize=24;align=center;exitX=1;exitY=0.5;exitDx=0;exitDy=0;exitPerimeter=0;entryX=0;entryY=0.5;entryDx=0;entryDy=0;" edge="1" parent="WIyWlLk6GJQsqaUBKTNV-1" source="934r1Nunv1jcgl2rMJqk-1" target="934r1Nunv1jcgl2rMJqk-0">
          <mxGeometry width="50" height="50" relative="1" as="geometry">
            <mxPoint x="460" y="60" as="sourcePoint" />
            <mxPoint x="510" y="10" as="targetPoint" />
            <Array as="points">
              <mxPoint x="425" y="80" />
              <mxPoint x="540" y="80" />
            </Array>
          </mxGeometry>
        </mxCell>
        <mxCell id="934r1Nunv1jcgl2rMJqk-94" value="" style="verticalLabelPosition=bottom;verticalAlign=top;html=1;shape=mxgraph.flowchart.on-page_reference;fontFamily=Times New Roman;fontSize=24;align=center;" vertex="1" parent="WIyWlLk6GJQsqaUBKTNV-1">
          <mxGeometry x="692.5" y="802.5" width="55" height="55" as="geometry" />
        </mxCell>
      </root>
    </mxGraphModel>
  </diagram>
</mxfile>
